<svg width="196.358" height="244.352" viewBox="0 0 51.953 64.652" xmlns:xlink="http://www.w3.org/1999/xlink" xmlns="http://www.w3.org/2000/svg"><defs><linearGradient xlink:href="#a" id="e" x1="88" y1="88" x2="488" y2="488" gradientUnits="userSpaceOnUse"/><linearGradient id="a"><stop offset="0" style="stop-color:#000;stop-opacity:.58823532"/><stop style="stop-color:#000;stop-opacity:0" offset=".88"/><stop offset="1" style="stop-color:#000;stop-opacity:1"/></linearGradient><linearGradient gradientUnits="userSpaceOnUse" y2="295.638" x2="-35.31" y1="295.638" x1="529.655" id="f" xlink:href="#b" gradientTransform="matrix(0 -.11989 -.11989 0 134.028 180.42)"/><linearGradient id="b"><stop offset="0" style="stop-color:#999;stop-opacity:1"/><stop style="stop-color:#b7b7b7;stop-opacity:1" offset=".613"/><stop offset="1" style="stop-color:#dbdbdb;stop-opacity:1"/></linearGradient><linearGradient id="c"><stop style="stop-color:gray;stop-opacity:1" offset="0"/><stop style="stop-color:#999;stop-opacity:1" offset="1"/></linearGradient><linearGradient xlink:href="#c" id="g" gradientUnits="userSpaceOnUse" gradientTransform="translate(2.214 -1.483) scale(1.00114)" x1="152.006" y1="112.013" x2="152.006" y2="239.995"/><filter style="color-interpolation-filters:sRGB" id="d" x="-.014" width="1.029" y="-.011" height="1.023"><feGaussianBlur stdDeviation="2.12"/></filter></defs><path style="color:#000;display:inline;overflow:visible;visibility:visible;opacity:.1;fill:#000;fill-opacity:1;fill-rule:nonzero;stroke:none;stroke-width:2;marker:none;filter:url(#d);enable-background:accumulate" d="M189.843 74c-70.593 0-78.189 7.25-77.843 77.987v292.026c-.346 70.736 7.25 77.987 77.843 77.987h196.314c70.593 0 76.006-7.274 77.843-77.987V151.987C464 81.25 456.75 74 386.157 74Z" transform="translate(-12.123 -7.097) scale(.1323)"/><path d="M189.843 74c-70.593 0-78.189 7.25-77.843 77.987v292.026c-.346 70.736 7.25 77.987 77.843 77.987h196.314C456.75 522 464 514.75 464 444.013V151.987C464 81.25 456.75 74 386.157 74Z" style="color:#000;display:inline;overflow:visible;visibility:visible;opacity:.3;fill:url(#e);fill-opacity:1;fill-rule:nonzero;stroke:none;stroke-width:2;marker:none;filter:url(#filter4380);enable-background:accumulate" transform="translate(-12.123 -7.097) scale(.1323)"/><path style="color:#000;display:inline;overflow:visible;visibility:visible;fill:url(#f);fill-opacity:1;fill-rule:nonzero;stroke:none;stroke-width:.264583;marker:none;enable-background:accumulate" d="M113.686 121.154c9.339 0 10.343.959 10.298 10.317v38.632c.045 9.358-.96 10.317-10.298 10.317H87.715c-9.339 0-10.298-.959-10.298-10.317v-38.632c0-9.358.96-10.317 10.298-10.317z" transform="translate(-74.725 -118.726)"/><g style="display:inline;enable-background:new"><text xml:space="preserve" style="font-style:normal;font-variant:normal;font-weight:300;font-stretch:normal;font-size:76.0739px;line-height:1.25;font-family:Ubuntu;-inkscape-font-specification:'Ubuntu Light';letter-spacing:0;word-spacing:0;display:inline;opacity:.2;fill:#fff;fill-opacity:1;stroke:#fff;stroke-width:3;stroke-miterlimit:4;stroke-dasharray:none;stroke-opacity:1;enable-background:new" x="87.804" y="239.649" transform="matrix(.2649 0 0 .26426 -11.594 -9.214)"><tspan x="87.804" y="239.649" style="font-style:normal;font-variant:normal;font-weight:300;font-stretch:normal;font-family:Ubuntu;-inkscape-font-specification:'Ubuntu Light';fill:#fff;fill-opacity:1;stroke:#fff;stroke-width:3;stroke-miterlimit:4;stroke-dasharray:none;stroke-opacity:1">LXI</tspan></text><text xml:space="preserve" style="font-style:normal;font-variant:normal;font-weight:300;font-stretch:normal;font-size:76.0739px;line-height:1.25;font-family:Ubuntu;-inkscape-font-specification:'Ubuntu Light';letter-spacing:0;word-spacing:0;fill:url(#g);fill-opacity:1;stroke:url(#linearGradient706);stroke-width:3;stroke-miterlimit:4;stroke-dasharray:none;stroke-opacity:1" x="87.804" y="237.646" transform="matrix(.2649 0 0 .26426 -11.594 -9.214)"><tspan x="87.804" y="237.646" style="font-style:normal;font-variant:normal;font-weight:300;font-stretch:normal;font-family:Ubuntu;-inkscape-font-specification:'Ubuntu Light';fill:url(#g);fill-opacity:1;stroke:url(#linearGradient706);stroke-width:3;stroke-miterlimit:4;stroke-dasharray:none;stroke-opacity:1">LXI</tspan></text></g><path style="color:#000;display:inline;overflow:visible;visibility:visible;opacity:.2;fill:#000;fill-opacity:1;fill-rule:nonzero;stroke:none;stroke-width:.264583;marker:none;enable-background:accumulate" d="M77.418 169.574v.53c-.045 9.357.96 10.316 10.298 10.316h25.971c9.339 0 10.055-.962 10.298-10.317v-.53c-.243 9.356-.96 10.318-10.298 10.318h-25.97c-9.34 0-10.344-.96-10.299-10.317z" transform="translate(-74.725 -118.726)"/><path style="display:inline;stroke-width:.264583;enable-background:new" d="M85.601 130.921h31.254v14.799H85.601z" transform="translate(-74.725 -118.726)"/><path style="display:inline;fill:#4d4d4d;stroke-width:.0467722;enable-background:new" d="M85.602 138.324v-7.367h31.244v14.733H85.602Z" transform="translate(-74.725 -118.726)"/></svg>