<svg viewBox="0 0 16 16" xmlns="http://www.w3.org/2000/svg"><g fill="gray"><path d="M2.698 1c-.836.01-1.446-.015-1.946.262-.25.138-.449.374-.558.666-.11.292-.146.64-.149 1.078L.001 9.958C0 10-.018 10 .268 10h.45c.622 0 1.144-.01 1.98 0h9.676c.836-.01 1.108 0 1.76 0h.853c.01-.354.019-1.54.008-2V3.006c0-.438-.007-.786-.116-1.078a1.255 1.255 0 0 0-.557-.666c-.5-.277-1.112-.252-1.948-.262H2.7zm.014 1h9.66c.85.01 1.293.04 1.47.137a.27.27 0 0 1 .104.143c.023.06.053.298.053.726V8c0 .428-.03.664-.053.727-.032.085-.077.125-.104.14-.173.095-.616.123-1.47.133H2.698c-.851-.01-1.294-.038-1.465-.133-.03-.015-.074-.055-.106-.14-.046-.123-.085-.349-.085-.727V3.006c0-.378.04-.604.085-.726.032-.086.077-.127.105-.143.177-.098.618-.126 1.48-.137Z" color="#000" font-family="sans-serif" font-weight="400" overflow="visible" style="font-variant-ligatures:none;font-variant-position:normal;font-variant-caps:normal;font-variant-numeric:normal;font-variant-alternates:normal;font-feature-settings:normal;text-indent:0;text-decoration-line:none;text-decoration-style:solid;text-decoration-color:#000;text-transform:none;shape-padding:0;isolation:auto;mix-blend-mode:normal" transform="translate(.012 .006) scale(1.065)"/><path d="M0 8.013v4c0 .439.04.784.149 1.076.11.293.308.526.558.664.503.277 1.116.25 1.955.26h9.707c.84-.01 1.453.018 1.955-.26a1.25 1.25 0 0 0 .559-.664c.11-.292.063-.641.117-1.076v-4c-.204.007-.234.006-.438.011-.082.002-.199-.02-.28-.02-.048 0-.234.009-.282.009v4c0 .428-.03.663-.053.726-.032.085-.077.124-.105.139-.173.095-.618.125-1.475.135H2.662c-.854-.01-1.298-.04-1.47-.135-.03-.015-.074-.054-.106-.139-.046-.123-.086-.348-.086-.726v-4C.84 8.013.657 7.999.533 8c-.347.003-.294.013-.533.013z" style="font-variant-ligatures:none;font-variant-position:normal;font-variant-caps:normal;font-variant-numeric:normal;font-variant-alternates:normal;font-feature-settings:normal;text-indent:0;text-decoration-line:none;text-decoration-style:solid;text-decoration-color:#000;text-transform:none;shape-padding:0;isolation:auto;mix-blend-mode:normal" transform="translate(.012 .006) scale(1.065)"/><path d="M5.337 11.72h1.065v1.066H5.337zm2.13 0h1.065v1.066H7.467zm2.13 0h1.065v1.066H9.597zm2.13 0h1.065v1.066h-1.065zM2.142 3.2h11.715v5.326H2.142zm1.065 8.52h1.065v1.066H3.207z" color="#000"/></g></svg>