<?xml version="1.0" encoding="UTF-8"?>
<svg width="16" height="16.007" xmlns="http://www.w3.org/2000/svg">
 <g fill="#808080" font-weight="400">
  <path d="M5.5 6.007a.5.5 0 100 1h6a.5.5 0 100-1zm0 2a.5.5 0 100 1h5a.5.5 0 100-1zm0 2a.5.5 0 100 1h6a.5.5 0 100-1zm0 2a.5.5 0 100 1h3a.5.5 0 100-1z" font-family="sans-serif" overflow="visible" style="font-feature-settings:normal;font-variant-alternates:normal;font-variant-caps:normal;font-variant-ligatures:normal;font-variant-numeric:normal;font-variant-position:normal;isolation:auto;mix-blend-mode:normal;shape-padding:0;text-decoration-color:#000;text-decoration-line:none;text-decoration-style:solid;text-indent:0;text-orientation:mixed;text-transform:none"/>
  <path d="M4 1.007c-1.09 0-2 .91-2 2v11c0 1.09.91 2 2 2h9c1.09 0 2-.91 2-2v-11c0-1.09-.91-2-2-2v13H4v-13z" font-family="Sans" overflow="visible" style="text-decoration-line:none;text-indent:0;text-transform:none"/>
  <path d="M5.492 0A.5.5 0 005 .506v3a.5.5 0 101 0v-3A.5.5 0 005.492 0zm2 0A.5.5 0 007 .506v3a.5.5 0 101 0v-3A.5.5 0 007.492 0zm2 0A.5.5 0 009 .506v3a.5.5 0 101 0v-3A.5.5 0 009.492 0zm2 0A.5.5 0 0011 .506v3a.5.5 0 101 0v-3A.5.5 0 0011.492 0z" font-family="sans-serif" overflow="visible" style="font-feature-settings:normal;font-variant-alternates:normal;font-variant-caps:normal;font-variant-ligatures:normal;font-variant-numeric:normal;font-variant-position:normal;isolation:auto;mix-blend-mode:normal;shape-padding:0;text-decoration-color:#000;text-decoration-line:none;text-decoration-style:solid;text-indent:0;text-orientation:mixed;text-transform:none"/>
 </g>
</svg>
