<svg width="16" height="16.007" xmlns="http://www.w3.org/2000/svg"><g fill="gray" font-weight="400"><path d="M5.5 6.007a.5.5 0 1 0 0 1h6a.5.5 0 1 0 0-1zm0 2a.5.5 0 1 0 0 1h5a.5.5 0 1 0 0-1zm0 2a.5.5 0 1 0 0 1h6a.5.5 0 1 0 0-1zm0 2a.5.5 0 1 0 0 1h3a.5.5 0 1 0 0-1z" font-family="sans-serif" overflow="visible" style="font-variant-ligatures:normal;font-variant-position:normal;font-variant-caps:normal;font-variant-numeric:normal;font-variant-alternates:normal;font-feature-settings:normal;text-indent:0;text-decoration-line:none;text-decoration-style:solid;text-decoration-color:#000;text-transform:none;text-orientation:mixed;shape-padding:0;isolation:auto;mix-blend-mode:normal" transform="translate(-.5)"/><path d="M4 1.007c-1.09 0-2 .91-2 2v11c0 1.09.91 2 2 2h9c1.09 0 2-.91 2-2v-11c0-1.09-.91-2-2-2v13H4Z" font-family="Sans" overflow="visible" style="text-indent:0;text-decoration-line:none;text-transform:none" transform="translate(-.5)"/><path d="M5.492 0A.5.5 0 0 0 5 .506v3a.5.5 0 1 0 1 0v-3A.5.5 0 0 0 5.492 0Zm2 0A.5.5 0 0 0 7 .506v3a.5.5 0 1 0 1 0v-3A.5.5 0 0 0 7.492 0Zm2 0A.5.5 0 0 0 9 .506v3a.5.5 0 1 0 1 0v-3A.5.5 0 0 0 9.492 0Zm2 0A.5.5 0 0 0 11 .506v3a.5.5 0 1 0 1 0v-3A.5.5 0 0 0 11.492 0Z" font-family="sans-serif" overflow="visible" style="font-variant-ligatures:normal;font-variant-position:normal;font-variant-caps:normal;font-variant-numeric:normal;font-variant-alternates:normal;font-feature-settings:normal;text-indent:0;text-decoration-line:none;text-decoration-style:solid;text-decoration-color:#000;text-transform:none;text-orientation:mixed;shape-padding:0;isolation:auto;mix-blend-mode:normal" transform="translate(-.5)"/></g></svg>